#!OML:ASF Y:\EmotionMaleHayes\Project 1\Capture day 1\Session 1\Male1.ASF
:FULLY-SPECIFIED
:DEGREES
201
root -29.2324 16.8849 1.37163 186.035 57.8505 189.902
lowerback 11.5921 3.12196 5.29927
upperback 0.557783 4.91241 0.150228
thorax -5.47566 2.31067 -3.59475
lowerneck -18.8258 -4.15531 -1.94413
upperneck 26.028 -3.34385 -4.68137
head 11.5816 -2.10371 -1.87501
rclavicle 7.1314e-015 1.59028e-015
rhumerus -32.3946 15.0755 -92.6586
rradius 35.1575
rwrist -1.3367
rhand -8.6335 -33.5637
rfingers 7.12502
rthumb 17.2992 -62.8138
lclavicle 7.1314e-015 1.59028e-015
lhumerus -42.2195 -0.827142 82.3367
lradius 30.2435
lwrist -4.32147
lhand -18.2989 -21.7992
lfingers 7.12502
lthumb 7.98182 8.03008
rfemur 11.1581 -15.7874 22.6397
rtibia 7.17428
rfoot -22.5189 -19.7297
rtoes 20.9966
lfemur -9.77296 16.8716 2.55806
ltibia 15.9632
lfoot -7.31961 15.8273
ltoes 13.2526
202
root -29.2214 16.8827 1.34929 186.254 57.4091 190.058
lowerback 11.4032 3.15865 5.47717
upperback 0.564354 4.96933 0.108834
thorax -5.33909 2.3391 -3.73039
lowerneck -18.9292 -4.0806 -1.88775
upperneck 26.1899 -3.20148 -4.78465
head 11.6642 -2.0442 -1.90753
rclavicle -5.89148e-014 4.77083e-015
rhumerus -32.0255 15.4686 -92.8531
rradius 35.2742
rwrist -1.35535
rhand -9.0065 -33.5148
rfingers 7.12502
rthumb 16.9402 -62.7961
lclavicle -5.89148e-014 4.77083e-015
lhumerus -42.3542 -0.394696 81.8659
lradius 29.8343
lwrist -5.07581
lhand -18.397 -22.0454
lfingers 7.12502
lthumb 7.88717 7.78743
rfemur 11.1725 -16.4117 22.5204
rtibia 7.16063
rfoot -22.3373 -19.5473
rtoes 20.547
lfemur -9.52639 16.9955 2.94928
ltibia 14.7153
lfoot -7.27781 16.9014
ltoes 14.2401
203
root -29.2104 16.8771 1.32564 186.417 56.9236 190.182
lowerback 11.2522 3.20361 5.63433
upperback 0.578348 5.03599 0.0590894
thorax -5.21547 2.37278 -3.86668
lowerneck -19.2064 -3.90354 -1.65452
upperneck 26.4379 -2.92537 -5.00299
head 11.812 -1.92309 -1.99877
rclavicle -3.43401e-014 -3.57812e-015
rhumerus -31.727 15.9871 -93.1162
rradius 35.4185
rwrist -1.12592
rhand -9.6439 -33.7662
rfingers 7.12502
rthumb 16.3265 -63.099
lclavicle -3.43401e-014 -3.57812e-015
lhumerus -42.5561 -0.251771 81.5433
lradius 29.711
lwrist -5.35915
lhand -18.3709 -22.0159
lfingers 7.12502
lthumb 7.91233 7.81603
rfemur 10.9462 -16.0159 22.9074
rtibia 7.41079
rfoot -22.757 -20.3485
rtoes 20.4033
lfemur -9.32169 16.8394 3.27926
ltibia 13.5758
lfoot -7.78282 18.0882
ltoes 16.1509
204
root -29.1998 16.8708 1.30481 186.498 56.3429 190.429
lowerback 11.3752 3.19125 5.76433
upperback 0.58789 5.04939 0.111121
thorax -5.26669 2.3759 -3.89537
lowerneck -19.1219 -3.78744 -1.56744
upperneck 26.49 -2.72988 -5.14488
head 11.8161 -1.83884 -2.0342
rclavicle -8.55768e-014 5.56597e-015
rhumerus -31.496 16.873 -93.3802
rradius 35.5923
rwrist -1.43363
rhand -9.99854 -34.1421
rfingers 7.12502
rthumb 15.985 -63.5026
lclavicle -8.55768e-014 5.56597e-015
lhumerus -42.8277 0.164314 81.1563
lradius 29.4564
lwrist -5.89445
lhand -18.0852 -22.1747
lfingers 7.12502
lthumb 8.1881 7.64669
rfemur 11.1215 -16.0448 23.1485
rtibia 7.41662
rfoot -22.9427 -20.8122
rtoes 20.2311
lfemur -8.98343 16.6835 3.76007
ltibia 12.4644
lfoot -8.08638 18.8522
ltoes 17.8788
205
root -29.193 16.8695 1.29233 186.736 55.8116 191.04
lowerback 11.832 3.17552 6.12351
upperback 0.558337 5.11665 0.178842
thorax -5.52217 2.39113 -4.07034
lowerneck -19.2121 -3.68058 -1.38793
upperneck 26.797 -2.52962 -5.35474
head 11.952 -1.75106 -2.12146
rclavicle -2.23633e-015 1.51076e-014
rhumerus -31.3282 17.5947 -93.6264
rradius 35.9218
rwrist -2.16039
rhand -9.95383 -34.1582
rfingers 7.12502
rthumb 16.0281 -63.5152
lclavicle -2.23633e-015 1.51076e-014
lhumerus -43.115 0.588318 80.6845
lradius 29.1075
lwrist -6.52877
lhand -17.9606 -22.1899
lfingers 7.12502
lthumb 8.30835 7.62672
rfemur 11.3702 -16.1367 23.5662
rtibia 7.50228
rfoot -23.1379 -21.2099
rtoes 20.2636
lfemur -8.52503 15.3985 4.44735
ltibia 11.2672
lfoot -8.89863 20.5399
ltoes 19.4805
206
root -29.1838 16.8633 1.27671 186.896 55.3264 191.24
lowerback 11.9087 3.21279 6.20433
upperback 0.498829 5.18364 0.169256
thorax -5.61305 2.4163 -4.14378
lowerneck -19.22 -3.57207 -1.34248
upperneck 26.9167 -2.37176 -5.34721
head 12.004 -1.67022 -2.1045
rclavicle -5.64051e-014 7.55382e-015
rhumerus -31.0894 17.9123 -93.7644
rradius 36.3257
rwrist -2.77958
rhand -9.69848 -34.2884
rfingers 7.12502
rthumb 16.274 -63.6255
lclavicle -5.64051e-014 7.55382e-015
lhumerus -43.3215 1.05751 80.1255
lradius 28.6494
lwrist -7.05091
lhand -17.7032 -22.3384
lfingers 7.12502
lthumb 8.55674 7.46823
rfemur 11.2804 -16.1597 23.8076
rtibia 7.71117
rfoot -23.4298 -21.656
rtoes 20.7378
lfemur -8.31407 15.1069 4.87516
ltibia 10.1916
lfoot -9.03202 21.7419
ltoes 19.3213
207
root -29.1711 16.8589 1.24147 186.532 54.8256 190.836
lowerback 11.7699 3.24716 6.02776
upperback 0.541353 5.18876 0.0928765
thorax -5.4976 2.42826 -4.11356
lowerneck -19.1363 -3.46779 -1.4274
upperneck 26.9374 -2.21478 -5.24665
head 12.0031 -1.59063 -2.02573
rclavicle 1.2096e-013 1.74931e-014
rhumerus -30.8541 18.2969 -93.8904
rradius 36.5431
rwrist -2.47907
rhand -9.91314 -34.0346
rfingers 7.12502
rthumb 16.0673 -63.3884
lclavicle 1.2096e-013 1.74931e-014
lhumerus -43.4915 1.67498 79.5729
lradius 28.25
lwrist -7.72917
lhand -17.1226 -22.6009
lfingers 7.12502
lthumb 9.11701 7.18201
rfemur 11.3703 -16.4371 23.4456
rtibia 7.90432
rfoot -23.6337 -21.8078
rtoes 21.2613
lfemur -7.98189 14.8 4.74697
ltibia 8.98334
lfoot -8.90423 22.7966
ltoes 18.92
208
root -29.1578 16.852 1.19362 186.222 54.3679 190.431
lowerback 11.498 3.31203 5.97706
upperback 0.602263 5.23811 -0.0431456
thorax -5.26696 2.46324 -4.21007
lowerneck -19.1405 -3.37495 -1.40205
upperneck 27.0465 -2.10151 -5.15303
head 12.0502 -1.52113 -1.97942
rclavicle -1.07344e-014 -1.27222e-014
rhumerus -30.5844 18.7629 -94.0287
rradius 36.8432
rwrist -2.60161
rhand -10.0263 -33.9758
rfingers 7.12502
rthumb 15.9584 -63.3384
lclavicle -1.07344e-014 -1.27222e-014
lhumerus -43.634 2.03668 79.192
lradius 27.9755
lwrist -8.21813
lhand -16.7314 -22.5741
lfingers 7.12502
lthumb 9.49456 7.19204
rfemur 11.4362 -16.937 22.9432
rtibia 8.17244
rfoot -23.7762 -21.6301
rtoes 21.5678
lfemur -7.60532 14.3109 4.53131
ltibia 7.66842
lfoot -9.23909 23.8538
ltoes 20.2073
209
root -29.148 16.8441 1.15866 186.398 53.8809 190.682
lowerback 11.396 3.32188 6.15336
upperback 0.662952 5.26804 -0.0262535
thorax -5.12861 2.48233 -4.28302
lowerneck -19.2395 -3.25677 -1.23022
upperneck 27.1345 -1.92488 -5.30504
head 12.1047 -1.44215 -2.04199
rclavicle -1.06201e-013 -7.55382e-015
rhumerus -30.3071 19.3966 -94.1578
rradius 37.236
rwrist -2.92369
rhand -10.0332 -34.001
rfingers 7.12502
rthumb 15.9517 -63.3641
lclavicle -1.06201e-013 -7.55382e-015
lhumerus -43.7683 2.41231 78.9017
lradius 27.7186
lwrist -8.41185
lhand -17.0381 -22.2326
lfingers 7.12502
lthumb 9.19857 7.5468
rfemur 11.4924 -17.2397 23.0085
rtibia 8.3368
rfoot -23.9366 -21.6854
rtoes 22.065
lfemur -7.25868 13.3601 4.85954
ltibia 6.4698
lfoot -10.4776 25.1794
ltoes 23.2267
210
root -29.1471 16.8422 1.15331 187.011 53.3902 191.598
lowerback 11.8415 3.30232 6.51599
upperback 0.567582 5.33866 0.131502
thorax -5.45396 2.49456 -4.36969
lowerneck -19.167 -3.26424 -1.23273
upperneck 27.3227 -1.88895 -5.35561
head 12.165 -1.42531 -2.05719
rclavicle 9.29815e-014 1.55052e-014
rhumerus -30.2209 19.9079 -94.3135
rradius 37.5665
rwrist -2.76517
rhand -10.0698 -33.847
rfingers 7.12502
rthumb 15.9164 -63.213
lclavicle 9.29815e-014 1.55052e-014
lhumerus -44.1055 2.77166 78.5442
lradius 27.5205
lwrist -8.58938
lhand -16.7179 -22.6333
lfingers 7.12502
lthumb 9.50751 7.13225
rfemur 11.4313 -16.7036 24.0109
rtibia 8.33725
rfoot -24.1242 -22.7164
rtoes 21.8811
lfemur -7.16153 12.7818 5.86999
ltibia 5.8054
lfoot -11.4247 26.15
ltoes 25.7171
